<mxfile host="app.diagrams.net" modified="2021-11-10T07:42:42.398Z" agent="5.0 (Macintosh; Intel Mac OS X 10_15_7) AppleWebKit/537.36 (KHTML, like Gecko) Chrome/95.0.4638.54 Safari/537.36" etag="TGIgmpiC9I-AYgnz9dvf" version="15.6.8" type="github">
  <diagram id="vsE465SX2cPEacJ-bp3B" name="Page-1">
    <mxGraphModel dx="1217" dy="2039" grid="1" gridSize="10" guides="1" tooltips="1" connect="1" arrows="1" fold="1" page="1" pageScale="1" pageWidth="827" pageHeight="1169" math="0" shadow="0">
      <root>
        <mxCell id="0" />
        <mxCell id="1" parent="0" />
        <mxCell id="xOtctn-aDaMQ04Lc9DY_-1" style="edgeStyle=orthogonalEdgeStyle;rounded=0;orthogonalLoop=1;jettySize=auto;html=1;exitX=1;exitY=0.5;exitDx=0;exitDy=0;" edge="1" parent="1" source="xOtctn-aDaMQ04Lc9DY_-2" target="xOtctn-aDaMQ04Lc9DY_-4">
          <mxGeometry relative="1" as="geometry" />
        </mxCell>
        <mxCell id="xOtctn-aDaMQ04Lc9DY_-2" value="用户" style="rounded=1;whiteSpace=wrap;html=1;" vertex="1" parent="1">
          <mxGeometry x="440" y="-10" width="80" height="40" as="geometry" />
        </mxCell>
        <mxCell id="xOtctn-aDaMQ04Lc9DY_-3" style="edgeStyle=orthogonalEdgeStyle;rounded=0;orthogonalLoop=1;jettySize=auto;html=1;exitX=1;exitY=0.5;exitDx=0;exitDy=0;entryX=0;entryY=0.5;entryDx=0;entryDy=0;" edge="1" parent="1" source="xOtctn-aDaMQ04Lc9DY_-4" target="xOtctn-aDaMQ04Lc9DY_-6">
          <mxGeometry relative="1" as="geometry" />
        </mxCell>
        <mxCell id="xOtctn-aDaMQ04Lc9DY_-4" value="反馈" style="rounded=1;whiteSpace=wrap;html=1;" vertex="1" parent="1">
          <mxGeometry x="550" y="-10" width="80" height="40" as="geometry" />
        </mxCell>
        <mxCell id="xOtctn-aDaMQ04Lc9DY_-5" style="edgeStyle=orthogonalEdgeStyle;rounded=0;orthogonalLoop=1;jettySize=auto;html=1;exitX=1;exitY=0.5;exitDx=0;exitDy=0;entryX=0;entryY=0.5;entryDx=0;entryDy=0;" edge="1" parent="1" source="xOtctn-aDaMQ04Lc9DY_-6" target="xOtctn-aDaMQ04Lc9DY_-8">
          <mxGeometry relative="1" as="geometry" />
        </mxCell>
        <mxCell id="xOtctn-aDaMQ04Lc9DY_-6" value="计划" style="rounded=1;whiteSpace=wrap;html=1;" vertex="1" parent="1">
          <mxGeometry x="660" y="-10" width="80" height="40" as="geometry" />
        </mxCell>
        <mxCell id="xOtctn-aDaMQ04Lc9DY_-7" style="edgeStyle=orthogonalEdgeStyle;rounded=0;orthogonalLoop=1;jettySize=auto;html=1;exitX=1;exitY=0.5;exitDx=0;exitDy=0;entryX=0;entryY=0.5;entryDx=0;entryDy=0;" edge="1" parent="1" source="xOtctn-aDaMQ04Lc9DY_-8" target="xOtctn-aDaMQ04Lc9DY_-10">
          <mxGeometry relative="1" as="geometry" />
        </mxCell>
        <mxCell id="xOtctn-aDaMQ04Lc9DY_-8" value="需求" style="rounded=1;whiteSpace=wrap;html=1;" vertex="1" parent="1">
          <mxGeometry x="770" y="-10" width="80" height="40" as="geometry" />
        </mxCell>
        <mxCell id="xOtctn-aDaMQ04Lc9DY_-9" style="edgeStyle=orthogonalEdgeStyle;rounded=0;orthogonalLoop=1;jettySize=auto;html=1;exitX=1;exitY=0.5;exitDx=0;exitDy=0;entryX=0;entryY=0.5;entryDx=0;entryDy=0;" edge="1" parent="1" source="xOtctn-aDaMQ04Lc9DY_-10" target="xOtctn-aDaMQ04Lc9DY_-12">
          <mxGeometry relative="1" as="geometry" />
        </mxCell>
        <mxCell id="xOtctn-aDaMQ04Lc9DY_-10" value="backlog" style="rounded=1;whiteSpace=wrap;html=1;" vertex="1" parent="1">
          <mxGeometry x="880" y="-10" width="80" height="40" as="geometry" />
        </mxCell>
        <mxCell id="xOtctn-aDaMQ04Lc9DY_-11" style="edgeStyle=orthogonalEdgeStyle;rounded=0;orthogonalLoop=1;jettySize=auto;html=1;exitX=0.5;exitY=1;exitDx=0;exitDy=0;entryX=0.5;entryY=0;entryDx=0;entryDy=0;" edge="1" parent="1" source="xOtctn-aDaMQ04Lc9DY_-12" target="xOtctn-aDaMQ04Lc9DY_-14">
          <mxGeometry relative="1" as="geometry" />
        </mxCell>
        <mxCell id="xOtctn-aDaMQ04Lc9DY_-12" value="迭代" style="rounded=1;whiteSpace=wrap;html=1;" vertex="1" parent="1">
          <mxGeometry x="990" y="-10" width="80" height="40" as="geometry" />
        </mxCell>
        <mxCell id="xOtctn-aDaMQ04Lc9DY_-13" style="edgeStyle=orthogonalEdgeStyle;rounded=0;orthogonalLoop=1;jettySize=auto;html=1;exitX=0;exitY=0.5;exitDx=0;exitDy=0;entryX=1;entryY=0.5;entryDx=0;entryDy=0;" edge="1" parent="1" source="xOtctn-aDaMQ04Lc9DY_-14" target="xOtctn-aDaMQ04Lc9DY_-16">
          <mxGeometry relative="1" as="geometry" />
        </mxCell>
        <mxCell id="xOtctn-aDaMQ04Lc9DY_-14" value="开发" style="rounded=1;whiteSpace=wrap;html=1;" vertex="1" parent="1">
          <mxGeometry x="990" y="85" width="80" height="40" as="geometry" />
        </mxCell>
        <mxCell id="xOtctn-aDaMQ04Lc9DY_-15" style="edgeStyle=orthogonalEdgeStyle;rounded=0;orthogonalLoop=1;jettySize=auto;html=1;exitX=0.5;exitY=1;exitDx=0;exitDy=0;entryX=0.5;entryY=0;entryDx=0;entryDy=0;" edge="1" parent="1" source="xOtctn-aDaMQ04Lc9DY_-16" target="xOtctn-aDaMQ04Lc9DY_-21">
          <mxGeometry relative="1" as="geometry" />
        </mxCell>
        <mxCell id="xOtctn-aDaMQ04Lc9DY_-16" value="gitlab" style="rounded=1;whiteSpace=wrap;html=1;" vertex="1" parent="1">
          <mxGeometry x="760" y="85" width="80" height="40" as="geometry" />
        </mxCell>
        <mxCell id="xOtctn-aDaMQ04Lc9DY_-17" value="" style="endArrow=none;dashed=1;html=1;dashPattern=1 3;strokeWidth=2;rounded=0;" edge="1" parent="1">
          <mxGeometry width="50" height="50" relative="1" as="geometry">
            <mxPoint x="420" y="-100" as="sourcePoint" />
            <mxPoint x="420" y="-100" as="targetPoint" />
            <Array as="points">
              <mxPoint x="420" y="150" />
              <mxPoint x="1080" y="150" />
              <mxPoint x="1080" y="-100" />
            </Array>
          </mxGeometry>
        </mxCell>
        <mxCell id="xOtctn-aDaMQ04Lc9DY_-18" value="&lt;font style=&quot;font-size: 15px&quot;&gt;TAPD&lt;/font&gt;" style="text;html=1;strokeColor=none;fillColor=none;align=center;verticalAlign=middle;whiteSpace=wrap;rounded=0;" vertex="1" parent="1">
          <mxGeometry x="710" y="-70" width="60" height="30" as="geometry" />
        </mxCell>
        <mxCell id="xOtctn-aDaMQ04Lc9DY_-21" value="代码检出" style="rounded=1;whiteSpace=wrap;html=1;" vertex="1" parent="1">
          <mxGeometry x="760" y="170" width="80" height="40" as="geometry" />
        </mxCell>
        <mxCell id="xOtctn-aDaMQ04Lc9DY_-22" style="edgeStyle=orthogonalEdgeStyle;rounded=0;orthogonalLoop=1;jettySize=auto;html=1;exitX=0;exitY=0.5;exitDx=0;exitDy=0;entryX=1;entryY=0.5;entryDx=0;entryDy=0;fontSize=15;" edge="1" parent="1" source="xOtctn-aDaMQ04Lc9DY_-23" target="xOtctn-aDaMQ04Lc9DY_-76">
          <mxGeometry relative="1" as="geometry" />
        </mxCell>
        <mxCell id="xOtctn-aDaMQ04Lc9DY_-23" value="生产环境" style="rounded=1;whiteSpace=wrap;html=1;" vertex="1" parent="1">
          <mxGeometry x="890" y="600" width="80" height="40" as="geometry" />
        </mxCell>
        <mxCell id="xOtctn-aDaMQ04Lc9DY_-24" style="edgeStyle=orthogonalEdgeStyle;rounded=0;orthogonalLoop=1;jettySize=auto;html=1;exitX=0;exitY=0.5;exitDx=0;exitDy=0;entryX=1;entryY=0.5;entryDx=0;entryDy=0;fontSize=15;" edge="1" parent="1" source="xOtctn-aDaMQ04Lc9DY_-25" target="xOtctn-aDaMQ04Lc9DY_-23">
          <mxGeometry relative="1" as="geometry" />
        </mxCell>
        <mxCell id="xOtctn-aDaMQ04Lc9DY_-25" value="预发布环境" style="rounded=1;whiteSpace=wrap;html=1;" vertex="1" parent="1">
          <mxGeometry x="1000" y="600" width="80" height="40" as="geometry" />
        </mxCell>
        <mxCell id="xOtctn-aDaMQ04Lc9DY_-26" style="edgeStyle=orthogonalEdgeStyle;rounded=0;orthogonalLoop=1;jettySize=auto;html=1;exitX=0;exitY=0.5;exitDx=0;exitDy=0;entryX=1;entryY=0.5;entryDx=0;entryDy=0;fontSize=15;" edge="1" parent="1" source="xOtctn-aDaMQ04Lc9DY_-27" target="xOtctn-aDaMQ04Lc9DY_-25">
          <mxGeometry relative="1" as="geometry" />
        </mxCell>
        <mxCell id="xOtctn-aDaMQ04Lc9DY_-27" value="&lt;span&gt;测试环境&lt;/span&gt;" style="rounded=1;whiteSpace=wrap;html=1;" vertex="1" parent="1">
          <mxGeometry x="1110" y="600" width="80" height="40" as="geometry" />
        </mxCell>
        <mxCell id="xOtctn-aDaMQ04Lc9DY_-28" value="" style="endArrow=none;dashed=1;html=1;dashPattern=1 3;strokeWidth=2;rounded=0;startArrow=none;" edge="1" parent="1" source="xOtctn-aDaMQ04Lc9DY_-68">
          <mxGeometry width="50" height="50" relative="1" as="geometry">
            <mxPoint x="360" y="400" as="sourcePoint" />
            <mxPoint x="360" y="400" as="targetPoint" />
            <Array as="points" />
          </mxGeometry>
        </mxCell>
        <mxCell id="xOtctn-aDaMQ04Lc9DY_-29" style="edgeStyle=orthogonalEdgeStyle;rounded=0;orthogonalLoop=1;jettySize=auto;html=1;exitX=1;exitY=0.5;exitDx=0;exitDy=0;entryX=0;entryY=0.5;entryDx=0;entryDy=0;" edge="1" parent="1" source="xOtctn-aDaMQ04Lc9DY_-30" target="xOtctn-aDaMQ04Lc9DY_-34">
          <mxGeometry relative="1" as="geometry" />
        </mxCell>
        <mxCell id="xOtctn-aDaMQ04Lc9DY_-30" value="ELK日志监控" style="rounded=1;whiteSpace=wrap;html=1;" vertex="1" parent="1">
          <mxGeometry x="690" y="740" width="80" height="40" as="geometry" />
        </mxCell>
        <mxCell id="xOtctn-aDaMQ04Lc9DY_-31" style="edgeStyle=orthogonalEdgeStyle;rounded=0;orthogonalLoop=1;jettySize=auto;html=1;exitX=1;exitY=0.5;exitDx=0;exitDy=0;entryX=0;entryY=0.5;entryDx=0;entryDy=0;" edge="1" parent="1" source="xOtctn-aDaMQ04Lc9DY_-32" target="xOtctn-aDaMQ04Lc9DY_-33">
          <mxGeometry relative="1" as="geometry" />
        </mxCell>
        <mxCell id="xOtctn-aDaMQ04Lc9DY_-32" value="prometheus基础数据监控" style="rounded=1;whiteSpace=wrap;html=1;" vertex="1" parent="1">
          <mxGeometry x="690" y="885" width="80" height="40" as="geometry" />
        </mxCell>
        <mxCell id="xOtctn-aDaMQ04Lc9DY_-33" value="granfna看板" style="rounded=1;whiteSpace=wrap;html=1;" vertex="1" parent="1">
          <mxGeometry x="800" y="885" width="80" height="40" as="geometry" />
        </mxCell>
        <mxCell id="xOtctn-aDaMQ04Lc9DY_-34" value="kibana看板" style="rounded=1;whiteSpace=wrap;html=1;" vertex="1" parent="1">
          <mxGeometry x="800" y="740" width="80" height="40" as="geometry" />
        </mxCell>
        <mxCell id="xOtctn-aDaMQ04Lc9DY_-35" style="edgeStyle=orthogonalEdgeStyle;rounded=0;orthogonalLoop=1;jettySize=auto;html=1;exitX=0.5;exitY=1;exitDx=0;exitDy=0;entryX=0.5;entryY=0;entryDx=0;entryDy=0;" edge="1" parent="1" source="xOtctn-aDaMQ04Lc9DY_-37" target="xOtctn-aDaMQ04Lc9DY_-32">
          <mxGeometry relative="1" as="geometry" />
        </mxCell>
        <mxCell id="xOtctn-aDaMQ04Lc9DY_-36" style="edgeStyle=orthogonalEdgeStyle;rounded=0;orthogonalLoop=1;jettySize=auto;html=1;exitX=0.5;exitY=0;exitDx=0;exitDy=0;entryX=0.5;entryY=1;entryDx=0;entryDy=0;" edge="1" parent="1" source="xOtctn-aDaMQ04Lc9DY_-37" target="xOtctn-aDaMQ04Lc9DY_-30">
          <mxGeometry relative="1" as="geometry" />
        </mxCell>
        <mxCell id="xOtctn-aDaMQ04Lc9DY_-37" value="CMDB" style="rounded=1;whiteSpace=wrap;html=1;" vertex="1" parent="1">
          <mxGeometry x="740" y="810" width="80" height="40" as="geometry" />
        </mxCell>
        <mxCell id="xOtctn-aDaMQ04Lc9DY_-38" value="" style="endArrow=none;dashed=1;html=1;dashPattern=1 3;strokeWidth=2;rounded=0;" edge="1" parent="1">
          <mxGeometry width="50" height="50" relative="1" as="geometry">
            <mxPoint x="660" y="720" as="sourcePoint" />
            <mxPoint x="660" y="720" as="targetPoint" />
            <Array as="points">
              <mxPoint x="660" y="940" />
              <mxPoint x="910" y="940" />
              <mxPoint x="910" y="720" />
            </Array>
          </mxGeometry>
        </mxCell>
        <mxCell id="xOtctn-aDaMQ04Lc9DY_-39" style="edgeStyle=orthogonalEdgeStyle;rounded=0;orthogonalLoop=1;jettySize=auto;html=1;exitX=0;exitY=0.5;exitDx=0;exitDy=0;entryX=1;entryY=0.5;entryDx=0;entryDy=0;" edge="1" parent="1" source="xOtctn-aDaMQ04Lc9DY_-40" target="xOtctn-aDaMQ04Lc9DY_-42">
          <mxGeometry relative="1" as="geometry" />
        </mxCell>
        <mxCell id="xOtctn-aDaMQ04Lc9DY_-40" value="Docker build" style="rounded=1;whiteSpace=wrap;html=1;" vertex="1" parent="1">
          <mxGeometry x="640" y="440" width="80" height="40" as="geometry" />
        </mxCell>
        <mxCell id="xOtctn-aDaMQ04Lc9DY_-41" style="edgeStyle=orthogonalEdgeStyle;rounded=0;orthogonalLoop=1;jettySize=auto;html=1;exitX=0;exitY=0.25;exitDx=0;exitDy=0;" edge="1" parent="1" source="xOtctn-aDaMQ04Lc9DY_-42">
          <mxGeometry relative="1" as="geometry">
            <mxPoint x="490" y="450" as="targetPoint" />
            <mxPoint x="530" y="450" as="sourcePoint" />
          </mxGeometry>
        </mxCell>
        <mxCell id="xOtctn-aDaMQ04Lc9DY_-42" value="Harbor镜仓" style="rounded=1;whiteSpace=wrap;html=1;" vertex="1" parent="1">
          <mxGeometry x="540" y="440" width="80" height="40" as="geometry" />
        </mxCell>
        <mxCell id="xOtctn-aDaMQ04Lc9DY_-43" style="edgeStyle=orthogonalEdgeStyle;rounded=0;orthogonalLoop=1;jettySize=auto;html=1;exitX=1;exitY=0.75;exitDx=0;exitDy=0;entryX=0;entryY=0.75;entryDx=0;entryDy=0;" edge="1" parent="1" source="xOtctn-aDaMQ04Lc9DY_-47" target="xOtctn-aDaMQ04Lc9DY_-42">
          <mxGeometry relative="1" as="geometry">
            <mxPoint x="530" y="470" as="targetPoint" />
          </mxGeometry>
        </mxCell>
        <mxCell id="xOtctn-aDaMQ04Lc9DY_-44" style="edgeStyle=orthogonalEdgeStyle;rounded=0;orthogonalLoop=1;jettySize=auto;html=1;exitX=0.5;exitY=1;exitDx=0;exitDy=0;entryX=0.5;entryY=0;entryDx=0;entryDy=0;" edge="1" parent="1" source="xOtctn-aDaMQ04Lc9DY_-47" target="xOtctn-aDaMQ04Lc9DY_-48">
          <mxGeometry relative="1" as="geometry" />
        </mxCell>
        <mxCell id="xOtctn-aDaMQ04Lc9DY_-45" style="edgeStyle=orthogonalEdgeStyle;rounded=0;orthogonalLoop=1;jettySize=auto;html=1;exitX=0.5;exitY=1;exitDx=0;exitDy=0;entryX=0.5;entryY=0;entryDx=0;entryDy=0;" edge="1" parent="1" source="xOtctn-aDaMQ04Lc9DY_-47" target="xOtctn-aDaMQ04Lc9DY_-49">
          <mxGeometry relative="1" as="geometry" />
        </mxCell>
        <mxCell id="xOtctn-aDaMQ04Lc9DY_-46" style="edgeStyle=orthogonalEdgeStyle;rounded=0;orthogonalLoop=1;jettySize=auto;html=1;exitX=0.5;exitY=1;exitDx=0;exitDy=0;entryX=0.5;entryY=0;entryDx=0;entryDy=0;" edge="1" parent="1" source="xOtctn-aDaMQ04Lc9DY_-47" target="xOtctn-aDaMQ04Lc9DY_-50">
          <mxGeometry relative="1" as="geometry" />
        </mxCell>
        <mxCell id="xOtctn-aDaMQ04Lc9DY_-47" value="K8s" style="rounded=1;whiteSpace=wrap;html=1;" vertex="1" parent="1">
          <mxGeometry x="420" y="440" width="70" height="40" as="geometry" />
        </mxCell>
        <mxCell id="xOtctn-aDaMQ04Lc9DY_-48" value="pod" style="ellipse;whiteSpace=wrap;html=1;aspect=fixed;" vertex="1" parent="1">
          <mxGeometry x="435" y="510" width="40" height="40" as="geometry" />
        </mxCell>
        <mxCell id="xOtctn-aDaMQ04Lc9DY_-49" value="pod" style="ellipse;whiteSpace=wrap;html=1;aspect=fixed;" vertex="1" parent="1">
          <mxGeometry x="384" y="510" width="40" height="40" as="geometry" />
        </mxCell>
        <mxCell id="xOtctn-aDaMQ04Lc9DY_-50" value="pod" style="ellipse;whiteSpace=wrap;html=1;aspect=fixed;" vertex="1" parent="1">
          <mxGeometry x="484" y="510" width="40" height="40" as="geometry" />
        </mxCell>
        <mxCell id="xOtctn-aDaMQ04Lc9DY_-51" style="edgeStyle=orthogonalEdgeStyle;rounded=0;orthogonalLoop=1;jettySize=auto;html=1;exitX=1;exitY=0.5;exitDx=0;exitDy=0;entryX=0;entryY=0.5;entryDx=0;entryDy=0;" edge="1" parent="1" source="xOtctn-aDaMQ04Lc9DY_-52" target="xOtctn-aDaMQ04Lc9DY_-54">
          <mxGeometry relative="1" as="geometry" />
        </mxCell>
        <mxCell id="xOtctn-aDaMQ04Lc9DY_-52" value="build" style="rounded=1;whiteSpace=wrap;html=1;" vertex="1" parent="1">
          <mxGeometry x="870" y="440" width="80" height="40" as="geometry" />
        </mxCell>
        <mxCell id="xOtctn-aDaMQ04Lc9DY_-53" style="edgeStyle=orthogonalEdgeStyle;rounded=0;orthogonalLoop=1;jettySize=auto;html=1;exitX=1;exitY=0.5;exitDx=0;exitDy=0;entryX=0;entryY=0.5;entryDx=0;entryDy=0;" edge="1" parent="1" source="xOtctn-aDaMQ04Lc9DY_-54" target="xOtctn-aDaMQ04Lc9DY_-56">
          <mxGeometry relative="1" as="geometry" />
        </mxCell>
        <mxCell id="xOtctn-aDaMQ04Lc9DY_-54" value="war包" style="rounded=1;whiteSpace=wrap;html=1;" vertex="1" parent="1">
          <mxGeometry x="970" y="440" width="80" height="40" as="geometry" />
        </mxCell>
        <mxCell id="xOtctn-aDaMQ04Lc9DY_-55" style="edgeStyle=orthogonalEdgeStyle;rounded=0;orthogonalLoop=1;jettySize=auto;html=1;exitX=0.5;exitY=1;exitDx=0;exitDy=0;fontSize=15;" edge="1" parent="1" source="xOtctn-aDaMQ04Lc9DY_-56" target="xOtctn-aDaMQ04Lc9DY_-27">
          <mxGeometry relative="1" as="geometry" />
        </mxCell>
        <mxCell id="xOtctn-aDaMQ04Lc9DY_-56" value="部署" style="rounded=1;whiteSpace=wrap;html=1;" vertex="1" parent="1">
          <mxGeometry x="1110" y="440" width="80" height="40" as="geometry" />
        </mxCell>
        <mxCell id="xOtctn-aDaMQ04Lc9DY_-57" value="&lt;font style=&quot;font-size: 15px&quot;&gt;Jenkins&lt;/font&gt;" style="text;html=1;strokeColor=none;fillColor=none;align=center;verticalAlign=middle;whiteSpace=wrap;rounded=0;" vertex="1" parent="1">
          <mxGeometry x="710" y="380" width="60" height="30" as="geometry" />
        </mxCell>
        <mxCell id="xOtctn-aDaMQ04Lc9DY_-58" style="edgeStyle=orthogonalEdgeStyle;rounded=0;orthogonalLoop=1;jettySize=auto;html=1;exitX=1;exitY=0.5;exitDx=0;exitDy=0;entryX=0;entryY=0.5;entryDx=0;entryDy=0;fontSize=15;" edge="1" parent="1" source="xOtctn-aDaMQ04Lc9DY_-59" target="xOtctn-aDaMQ04Lc9DY_-61">
          <mxGeometry relative="1" as="geometry" />
        </mxCell>
        <mxCell id="xOtctn-aDaMQ04Lc9DY_-59" value="测试环境" style="rounded=1;whiteSpace=wrap;html=1;" vertex="1" parent="1">
          <mxGeometry x="380" y="600" width="80" height="40" as="geometry" />
        </mxCell>
        <mxCell id="xOtctn-aDaMQ04Lc9DY_-60" style="edgeStyle=orthogonalEdgeStyle;rounded=0;orthogonalLoop=1;jettySize=auto;html=1;exitX=1;exitY=0.5;exitDx=0;exitDy=0;entryX=0;entryY=0.5;entryDx=0;entryDy=0;fontSize=15;" edge="1" parent="1" source="xOtctn-aDaMQ04Lc9DY_-61" target="xOtctn-aDaMQ04Lc9DY_-63">
          <mxGeometry relative="1" as="geometry" />
        </mxCell>
        <mxCell id="xOtctn-aDaMQ04Lc9DY_-61" value="预发布环境" style="rounded=1;whiteSpace=wrap;html=1;" vertex="1" parent="1">
          <mxGeometry x="500" y="600" width="80" height="40" as="geometry" />
        </mxCell>
        <mxCell id="xOtctn-aDaMQ04Lc9DY_-62" style="edgeStyle=orthogonalEdgeStyle;rounded=0;orthogonalLoop=1;jettySize=auto;html=1;exitX=1;exitY=0.5;exitDx=0;exitDy=0;fontSize=15;" edge="1" parent="1" source="xOtctn-aDaMQ04Lc9DY_-63" target="xOtctn-aDaMQ04Lc9DY_-76">
          <mxGeometry relative="1" as="geometry" />
        </mxCell>
        <mxCell id="xOtctn-aDaMQ04Lc9DY_-63" value="生产环境" style="rounded=1;whiteSpace=wrap;html=1;" vertex="1" parent="1">
          <mxGeometry x="610" y="600" width="80" height="40" as="geometry" />
        </mxCell>
        <mxCell id="xOtctn-aDaMQ04Lc9DY_-64" value="" style="endArrow=none;dashed=1;html=1;dashPattern=1 3;strokeWidth=2;rounded=0;" edge="1" parent="1">
          <mxGeometry width="50" height="50" relative="1" as="geometry">
            <mxPoint x="370" y="430" as="sourcePoint" />
            <mxPoint x="370" y="430" as="targetPoint" />
            <Array as="points">
              <mxPoint x="370" y="570" />
              <mxPoint x="530" y="570" />
              <mxPoint x="530" y="430" />
            </Array>
          </mxGeometry>
        </mxCell>
        <mxCell id="xOtctn-aDaMQ04Lc9DY_-65" value="" style="endArrow=none;dashed=1;html=1;dashPattern=1 3;strokeWidth=2;rounded=0;" edge="1" parent="1" target="xOtctn-aDaMQ04Lc9DY_-57">
          <mxGeometry width="50" height="50" relative="1" as="geometry">
            <mxPoint x="740" y="670" as="sourcePoint" />
            <mxPoint x="730" y="600" as="targetPoint" />
            <Array as="points">
              <mxPoint x="740" y="610" />
            </Array>
          </mxGeometry>
        </mxCell>
        <mxCell id="xOtctn-aDaMQ04Lc9DY_-66" value="" style="endArrow=none;dashed=1;html=1;dashPattern=1 3;strokeWidth=2;rounded=0;" edge="1" parent="1">
          <mxGeometry width="50" height="50" relative="1" as="geometry">
            <mxPoint x="860" y="670" as="sourcePoint" />
            <mxPoint x="860" y="400" as="targetPoint" />
          </mxGeometry>
        </mxCell>
        <mxCell id="xOtctn-aDaMQ04Lc9DY_-67" value="&lt;font style=&quot;font-size: 15px&quot;&gt;容器环境&lt;/font&gt;" style="text;html=1;strokeColor=none;fillColor=none;align=center;verticalAlign=middle;whiteSpace=wrap;rounded=0;" vertex="1" parent="1">
          <mxGeometry x="540" y="380" width="100" height="50" as="geometry" />
        </mxCell>
        <mxCell id="xOtctn-aDaMQ04Lc9DY_-68" value="&lt;font style=&quot;font-size: 14px&quot;&gt;裸机环境&lt;/font&gt;" style="text;html=1;strokeColor=none;fillColor=none;align=center;verticalAlign=middle;whiteSpace=wrap;rounded=0;" vertex="1" parent="1">
          <mxGeometry x="980" y="390" width="60" height="30" as="geometry" />
        </mxCell>
        <mxCell id="xOtctn-aDaMQ04Lc9DY_-69" value="" style="endArrow=none;dashed=1;html=1;dashPattern=1 3;strokeWidth=2;rounded=0;" edge="1" parent="1" target="xOtctn-aDaMQ04Lc9DY_-68">
          <mxGeometry width="50" height="50" relative="1" as="geometry">
            <mxPoint x="360" y="400" as="sourcePoint" />
            <mxPoint x="360" y="400" as="targetPoint" />
            <Array as="points">
              <mxPoint x="360" y="670" />
              <mxPoint x="1220" y="670" />
              <mxPoint x="1220" y="400" />
            </Array>
          </mxGeometry>
        </mxCell>
        <mxCell id="xOtctn-aDaMQ04Lc9DY_-70" value="" style="endArrow=none;dashed=1;html=1;dashPattern=1 3;strokeWidth=2;rounded=0;" edge="1" parent="1">
          <mxGeometry width="50" height="50" relative="1" as="geometry">
            <mxPoint x="870" y="580" as="sourcePoint" />
            <mxPoint x="870" y="580" as="targetPoint" />
            <Array as="points">
              <mxPoint x="870" y="660" />
              <mxPoint x="1200" y="660" />
              <mxPoint x="1200" y="580" />
            </Array>
          </mxGeometry>
        </mxCell>
        <mxCell id="xOtctn-aDaMQ04Lc9DY_-71" value="" style="endArrow=classic;html=1;rounded=0;fontSize=15;entryX=0;entryY=0.5;entryDx=0;entryDy=0;" edge="1" parent="1" target="xOtctn-aDaMQ04Lc9DY_-37">
          <mxGeometry width="50" height="50" relative="1" as="geometry">
            <mxPoint x="500" y="660" as="sourcePoint" />
            <mxPoint x="730" y="720" as="targetPoint" />
            <Array as="points">
              <mxPoint x="500" y="830" />
            </Array>
          </mxGeometry>
        </mxCell>
        <mxCell id="xOtctn-aDaMQ04Lc9DY_-72" value="" style="endArrow=classic;html=1;rounded=0;fontSize=15;entryX=1;entryY=0.5;entryDx=0;entryDy=0;" edge="1" parent="1" target="xOtctn-aDaMQ04Lc9DY_-37">
          <mxGeometry width="50" height="50" relative="1" as="geometry">
            <mxPoint x="1040" y="660" as="sourcePoint" />
            <mxPoint x="750" y="840" as="targetPoint" />
            <Array as="points">
              <mxPoint x="1040" y="830" />
            </Array>
          </mxGeometry>
        </mxCell>
        <mxCell id="xOtctn-aDaMQ04Lc9DY_-73" value="监控系统" style="text;html=1;strokeColor=none;fillColor=none;align=center;verticalAlign=middle;whiteSpace=wrap;rounded=0;fontSize=15;" vertex="1" parent="1">
          <mxGeometry x="740" y="690" width="80" height="30" as="geometry" />
        </mxCell>
        <mxCell id="xOtctn-aDaMQ04Lc9DY_-74" value="" style="endArrow=classic;html=1;rounded=0;fontSize=15;entryX=0.5;entryY=0;entryDx=0;entryDy=0;" edge="1" parent="1" target="xOtctn-aDaMQ04Lc9DY_-59">
          <mxGeometry width="50" height="50" relative="1" as="geometry">
            <mxPoint x="420" y="570" as="sourcePoint" />
            <mxPoint x="780" y="550" as="targetPoint" />
          </mxGeometry>
        </mxCell>
        <mxCell id="xOtctn-aDaMQ04Lc9DY_-75" value="" style="endArrow=none;dashed=1;html=1;dashPattern=1 3;strokeWidth=2;rounded=0;" edge="1" parent="1">
          <mxGeometry width="50" height="50" relative="1" as="geometry">
            <mxPoint x="370" y="580" as="sourcePoint" />
            <mxPoint x="370" y="580" as="targetPoint" />
            <Array as="points">
              <mxPoint x="370" y="660" />
              <mxPoint x="700" y="660" />
              <mxPoint x="700" y="580" />
            </Array>
          </mxGeometry>
        </mxCell>
        <mxCell id="xOtctn-aDaMQ04Lc9DY_-76" value="版本管理" style="rounded=1;whiteSpace=wrap;html=1;" vertex="1" parent="1">
          <mxGeometry x="760" y="600" width="80" height="40" as="geometry" />
        </mxCell>
      </root>
    </mxGraphModel>
  </diagram>
</mxfile>
